<?xml version="1.0" standalone="no"?>
<!DOCTYPE svg PUBLIC "-//W3C//DTD SVG 20010904//EN"
 "http://www.w3.org/TR/2001/REC-SVG-20010904/DTD/svg10.dtd">
<svg version="1.0" xmlns="http://www.w3.org/2000/svg"
 width="16.000000pt" height="16.000000pt" viewBox="0 0 16.000000 16.000000"
 preserveAspectRatio="xMidYMid meet">
<metadata>
Created by potrace 1.11, written by Peter Selinger 2001-2013
</metadata>
<g transform="translate(0.000000,16.000000) scale(0.006531,-0.006531)"
fill="#000000" stroke="none">
<path d="M1546 2375 c-4 -10 -12 -15 -22 -11 -28 11 -167 -24 -242 -60 -87
-43 -188 -136 -219 -205 -12 -25 -25 -73 -29 -105 -6 -53 -11 -64 -53 -105
-78 -77 -81 -84 -107 -185 -44 -174 -21 -294 66 -339 21 -10 80 -22 125 -24 5
-1 -14 -25 -43 -54 -29 -29 -52 -61 -52 -70 0 -10 -78 -96 -172 -192 -166
-166 -218 -214 -302 -280 -79 -61 -130 -135 -142 -202 -3 -16 -7 -35 -9 -43
-2 -8 -7 -41 -10 -72 -5 -50 -2 -64 24 -117 17 -33 31 -65 31 -71 0 -19 -76
-11 -110 12 -36 25 -43 40 -44 108 -1 65 5 80 46 125 42 44 46 55 22 55 -12 0
-14 4 -7 12 6 7 13 21 16 31 5 13 2 17 -11 15 -14 -2 -16 3 -14 30 l2 33 -31
-18 c-17 -10 -48 -37 -70 -60 -25 -28 -39 -37 -39 -26 0 14 -3 14 -21 -3 -11
-10 -28 -31 -37 -47 -9 -15 -27 -30 -39 -33 -17 -5 -22 -12 -18 -28 19 -83 24
-117 25 -157 0 -63 39 -137 93 -174 36 -26 51 -30 107 -30 36 1 89 9 118 19
72 24 111 23 174 -7 29 -14 78 -29 108 -33 70 -8 251 -8 310 1 60 8 269 52
351 73 l65 17 -8 30 c-4 17 -18 43 -30 58 -21 25 -31 28 -98 33 -110 7 -120
10 -120 40 0 51 32 88 132 149 64 40 118 55 118 34 0 -8 5 -43 10 -79 20 -137
23 -155 23 -167 0 -7 5 -13 10 -13 6 0 32 -20 58 -45 26 -25 56 -46 66 -46 76
-5 108 -4 153 8 62 16 110 47 110 72 0 25 16 37 67 50 83 22 63 79 -38 107
-77 22 -94 49 -114 180 -20 136 -19 150 16 205 30 47 36 63 39 104 1 11 4 14
7 8 2 -7 8 -13 12 -13 16 0 46 69 54 125 16 113 12 148 -22 211 -21 39 -27 60
-20 65 7 4 -1 14 -20 25 -21 12 -31 26 -31 42 0 14 -13 36 -30 52 -16 15 -32
42 -35 61 -3 19 -15 47 -26 62 -31 43 -30 61 8 118 19 29 41 66 49 81 8 16 21
28 28 28 8 0 26 14 40 31 l26 31 1 -29 c0 -15 2 -44 4 -63 2 -19 6 -66 9 -105
3 -38 8 -79 10 -90 2 -11 7 -47 10 -80 4 -33 9 -67 11 -75 2 -8 6 -35 9 -60 3
-25 15 -105 26 -179 11 -74 17 -145 14 -158 -5 -18 1 -32 21 -53 25 -27 26
-30 14 -64 -14 -39 -8 -54 28 -61 18 -3 23 3 28 35 4 22 3 49 -1 62 -4 13 -6
36 -5 51 1 15 -3 35 -10 43 -7 9 -14 23 -14 32 -5 49 -17 155 -19 170 -2 9 -7
48 -11 86 -4 38 -8 79 -10 90 -2 12 -6 48 -10 81 -3 33 -8 78 -10 100 -2 22
-7 67 -10 100 -3 33 -8 78 -11 100 -11 93 -11 113 5 142 16 31 86 113 97 113
3 0 17 -26 32 -57 30 -64 28 -27 21 -568 -1 -88 2 -189 6 -225 14 -120 24
-270 30 -415 1 -49 8 -110 15 -134 14 -52 61 -100 99 -102 14 -1 33 -2 41 -3
32 -3 104 24 131 50 37 35 44 72 25 137 -13 44 -28 66 -92 128 -42 41 -92 89
-110 107 -34 33 -43 69 -23 89 8 8 6 15 -6 24 -8 8 -22 20 -30 27 -12 11 -14
76 -11 410 3 429 -1 472 -49 543 -14 19 -25 38 -25 41 0 3 14 23 31 44 28 36
30 44 25 91 -8 73 -55 164 -103 201 -25 19 -68 14 -89 -9 -17 -19 -63 -47 -81
-51 -5 -1 -22 -7 -40 -15 -18 -7 -43 -13 -56 -13 -30 0 -164 66 -175 86 -8 15
-10 14 -16 -1z m44 -230 c17 -21 7 -41 -31 -60 -30 -16 -33 -16 -52 3 l-20 20
26 26 c29 29 58 33 77 11z m642 -1358 c58 -47 108 -121 108 -159 0 -53 -68
-98 -125 -84 -45 11 -56 44 -62 183 -6 144 -16 137 79 60z"/>
</g>
</svg>
